<?xml version="1.0" encoding="UTF-8" standalone="no"?>
<!-- Created with Inkscape (http://www.inkscape.org/) -->

<svg
   version="1.1"
   id="svg1"
   width="81.919998"
   height="81.919998"
   viewBox="0 0 81.919998 81.919998"
   sodipodi:docname="io.melechtna.CosmicDust.png"
   inkscape:export-filename="io.melechtna.CosmicDust.svg"
   inkscape:export-xdpi="96"
   inkscape:export-ydpi="96"
   xmlns:inkscape="http://www.inkscape.org/namespaces/inkscape"
   xmlns:sodipodi="http://sodipodi.sourceforge.net/DTD/sodipodi-0.dtd"
   xmlns:xlink="http://www.w3.org/1999/xlink"
   xmlns="http://www.w3.org/2000/svg"
   xmlns:svg="http://www.w3.org/2000/svg">
  <defs
     id="defs1">
    <linearGradient
       id="linearGradient10"
       inkscape:collect="always">
      <stop
         style="stop-color:#543875;stop-opacity:1;"
         offset="0.06087996"
         id="stop10" />
      <stop
         style="stop-color:#37224b;stop-opacity:1;"
         offset="0.76620793"
         id="stop12" />
      <stop
         style="stop-color:#2d1c3c;stop-opacity:1;"
         offset="1"
         id="stop11" />
    </linearGradient>
    <linearGradient
       inkscape:collect="always"
       xlink:href="#linearGradient10"
       id="linearGradient11"
       x1="5.6411009"
       y1="4.4344254"
       x2="78.023994"
       y2="75.684425"
       gradientUnits="userSpaceOnUse" />
  </defs>
  <sodipodi:namedview
     id="namedview1"
     pagecolor="#ffffff"
     bordercolor="#000000"
     borderopacity="0.25"
     inkscape:showpageshadow="2"
     inkscape:pageopacity="0.0"
     inkscape:pagecheckerboard="0"
     inkscape:deskcolor="#d1d1d1">
    <inkscape:page
       x="0"
       y="0"
       width="81.919998"
       height="81.919998"
       id="page2"
       margin="0"
       bleed="0" />
  </sodipodi:namedview>
  <g
     inkscape:groupmode="layer"
     inkscape:label="Image"
     id="g1"
     style="display:inline">
    <path
       style="fill:url(#linearGradient11);stroke-width:23;stroke-linejoin:round"
       d="M 0.14111129,21.254889 C 0.13684393,11.721612 1.4594537,8.2494119 5.6091739,4.3215334 9.7588941,0.39365488 12.291955,0.12347238 21.55475,0.12347238 h 39.087829 c 9.273913,0 11.916972,0.65248132 15.927937,4.51556142 4.010965,3.8630801 5.203479,6.6243802 5.203479,16.0337712 v 39.599357 c 0,9.248015 -0.0085,11.205033 -3.845283,15.416408 -3.836807,4.211375 -7.639995,6.056812 -17.262014,6.056812 H 21.228355 c -9.354005,0 -11.9855129,-0.812737 -15.9895982,-4.769171 C 1.2346715,73.019777 0.16296491,70.075862 0.15875021,60.660218 Z"
       id="path1"
       sodipodi:nodetypes="szsszsszsszss"
       inkscape:label="Backgrounds" />
    <path
       style="fill:#131b22;fill-opacity:1;stroke-width:23;stroke-linejoin:round"
       d="m 13.383382,68.727921 c 0,0 0.02353,-46.632563 -0.0091,-54.086334 -0.0039,-0.887803 0.129672,-1.824243 0.550674,-2.605887 0.61991,-1.15094 2.027215,-2.8045417 2.757735,-2.7884498 l 49.80073,1.0970058 0.945597,55.130221 c 0.04748,2.768438 -4.521626,7.589223 -6.71814,7.590162 0,0 -29.198343,0.01247 -43.797514,0.01871 -1.416619,6.05e-4 -3.524762,-2.570813 -3.530004,-4.355518 0,-3.1e-5 2.2e-5,9e-5 2.2e-5,9e-5 z"
       id="path2"
       sodipodi:nodetypes="ssascsssss"
       inkscape:label="Drive Underside" />
    <path
       style="fill:#0f171e;fill-opacity:1;stroke-width:23;stroke-linejoin:round"
       d="m 30.007812,68.597656 c 0.0461,-0.151688 0.151127,-0.284874 0.265625,-0.394531 0.108057,-0.103489 0.233192,-0.234319 0.382813,-0.234375 l 20.785156,-0.0078 c 0.170871,-6.4e-5 0.330282,0.127554 0.445312,0.253907 0.100039,0.109887 0.151698,0.26111 0.183594,0.40625 0.204861,0.932214 0.278661,1.943578 0.02344,2.863281 -0.06533,0.235406 -0.204965,0.457493 -0.382813,0.624986 -0.163261,0.153755 -0.369486,0.316665 -0.59375,0.316407 l -20.414063,-0.02344 c -0.156097,-1.79e-4 -0.297737,-0.114659 -0.414061,-0.218751 -0.120838,-0.108131 -0.225567,-0.247415 -0.273438,-0.402343 -0.313285,-1.013902 -0.316401,-2.168248 -0.0078,-3.183591 z"
       id="path3"
       sodipodi:nodetypes="aassaaaassaaaa"
       inkscape:label="Drive Slot Decal Outer" />
    <path
       style="display:inline;fill:#212c38;fill-opacity:1;stroke-width:23;stroke-linejoin:round"
       d="m 30.332031,68.601562 c 0.05941,-0.138866 0.177083,-0.3125 0.328125,-0.3125 h 20.792969 c 0.149167,0 0.256268,0.182151 0.3125,0.320313 0.361266,0.887632 0.368092,1.990177 0,2.875 -0.115641,0.27798 -0.339551,0.636719 -0.640625,0.636719 H 30.652344 c -0.151943,0 -0.259453,-0.18726 -0.316407,-0.328125 -0.398754,-0.986242 -0.42236,-2.213361 -0.0039,-3.191407 z"
       id="path4"
       sodipodi:nodetypes="sssssssss"
       inkscape:label="Drive Slot Decal Inner" />
    <path
       style="display:inline;fill:#131b22;fill-opacity:1;stroke-width:23;stroke-linejoin:round"
       d="m 32.572514,69.255736 c 0.06079,-0.143963 0.180708,-0.325932 0.33698,-0.325932 h 16.291078 c 0.151572,0 0.26457,0.180282 0.322865,0.320196 0.24388,0.585341 0.239089,1.31503 0,1.902344 -0.05694,0.139863 -0.165398,0.324218 -0.316406,0.324218 H 32.886719 c -0.151098,0 -0.253124,-0.191483 -0.308594,-0.332031 -0.231133,-0.585641 -0.250526,-1.308783 -0.0056,-1.888795 z"
       id="path5"
       sodipodi:nodetypes="sssssssss"
       inkscape:label="Drive Slot" />
    <path
       style="fill:#212c38;fill-opacity:1;stroke:none;stroke-width:0.1;stroke-linejoin:miter;stroke-dasharray:none;stroke-opacity:1"
       d="M 34.492187,70.515625 V 69.875 l 3.828125,0.0078 v 0.96095 H 37.6875 v -0.316406 z"
       id="path6"
       inkscape:label="Sata Small" />
    <path
       style="fill:#212c38;fill-opacity:1;stroke:none;stroke-width:0.1;stroke-linejoin:miter;stroke-dasharray:none;stroke-opacity:1"
       d="m 40.886719,70.839844 v -0.957032 h 6.726562 v 0.636719 h -6.089844 v 0.324219 z"
       id="path7"
       inkscape:label="Sata Large" />
    <path
       style="display:inline;fill:#252d37;fill-opacity:1;stroke:none;stroke-width:0.1;stroke-linejoin:miter;stroke-dasharray:none;stroke-opacity:1"
       d="m 15.922359,10.681883 c 1.5e-5,-0.151064 0.252221,-0.9908744 0.403272,-0.9888442 L 66.46875,10.367 67.434454,65.081075 c 0.01361,0.77091 -1.577836,2.09712 -2.348861,2.099513 l -46.285089,0.143631 c -1.288956,0.004 -2.883801,-1.287326 -2.883669,-2.576288 z"
       id="path8"
       sodipodi:nodetypes="sscsssss"
       inkscape:label="Drive Decal" />
    <path
       style="display:inline;fill:#37404b;fill-opacity:1;stroke:none;stroke-width:0.1;stroke-linejoin:miter;stroke-dasharray:none;stroke-opacity:1"
       d="m 16.25,64.4375 c -2.07e-4,1.206133 1.352461,2.55839 2.558594,2.558594 l 46.078125,0.0078 c 1.208912,2.05e-4 2.550781,-1.369213 2.550781,-2.578125 V 12.289434 c 0,-1.664412 -1.526994,-3.8402272 -3.191406,-3.8402272 H 18.49667 c -0.918493,0 -2.237173,0.6899284 -2.237331,1.6084222 z"
       id="path10"
       inkscape:label="Drive Top"
       sodipodi:nodetypes="sssssssss" />
    <path
       style="display:inline;fill:#212a34;fill-opacity:1;stroke:none;stroke-width:0.1;stroke-linejoin:miter;stroke-dasharray:none;stroke-opacity:1"
       d="m 18.49667,60.903038 c 1.6e-5,1.291637 1.592032,2.588441 2.883669,2.588317 l 40.627473,-0.0039 c 1.510699,-1.45e-4 3.195313,-1.703313 3.195313,-3.214012 V 13.558594 c 0,-1.584638 -1.9388,-3.191406 -3.523438,-3.191406 H 21.691406 c -1.43452,0 -3.195329,1.448292 -3.195312,2.882812 z"
       id="path9"
       sodipodi:nodetypes="sssssssss"
       inkscape:label="Drive Sticker" />
    <path
       style="fill:#0f161d;fill-opacity:1;stroke:none;stroke-width:0.1;stroke-linejoin:miter;stroke-dasharray:none;stroke-opacity:1"
       d="m 22.082031,14.726563 c 0.157758,-0.38548 0.210759,-0.471659 0.644531,-0.652344 0.433772,-0.180685 1.469796,-0.177326 1.902344,0.0039 0.432548,0.181226 0.481801,0.264388 0.640625,0.648438 0.158824,0.38405 0.166302,1.198348 0.0078,1.582031 -0.158502,0.383683 -0.210807,0.461742 -0.644532,0.640625 -0.433725,0.178883 -1.473223,0.179366 -1.90625,0 -0.433027,-0.179366 -0.481467,-0.257717 -0.640625,-0.640625 -0.159158,-0.382908 -0.161651,-1.196545 -0.0039,-1.582025 z"
       id="path12"
       sodipodi:nodetypes="sssssssss"
       inkscape:label="Sticker Oval" />
    <path
       style="display:inline;fill:#d8a25b;fill-opacity:1;stroke:none;stroke-width:0.1;stroke-linejoin:miter;stroke-dasharray:none;stroke-opacity:1"
       d="m 24.339844,48.46875 c 0.462373,-0.288373 1.898436,-1.007813 2.132812,-1.75 0.05859,-0.04297 0.173771,-0.03124 0.240177,0.0039 0.234376,0.765625 1.80665,1.588293 2.076229,1.75 -0.385033,0.254672 -2.030024,1.035157 -2.100337,1.761719 -0.05859,0.03516 -0.232919,0.03449 -0.287607,0.0071 -0.109375,-0.867187 -1.526923,-1.393719 -2.061274,-1.772768 z"
       id="path15"
       sodipodi:nodetypes="cccccccc"
       inkscape:label="Big Star" />
    <path
       style="display:inline;fill:#a49f99;fill-opacity:1;stroke:none;stroke-width:0.1;stroke-linejoin:miter;stroke-dasharray:none;stroke-opacity:1"
       d="m 32.308594,18.238281 c -0.149167,0.0028 -0.31086,0.180333 -0.308594,0.328125 0.0023,0.147792 0.160356,0.309498 0.308594,0.308594 0.148238,-9.04e-4 0.317783,-0.174603 0.316406,-0.324219 -0.0014,-0.149616 -0.167239,-0.315251 -0.316406,-0.3125 z"
       id="path13"
       sodipodi:nodetypes="zzzzz"
       inkscape:label="Star 1" />
    <path
       style="display:inline;fill:#6d5d8b;fill-opacity:1;stroke:none;stroke-width:0.1;stroke-linejoin:miter;stroke-dasharray:none;stroke-opacity:1"
       d="m 41.277344,16.316406 c -0.150079,0 -0.319848,0.164948 -0.320313,0.316406 -4.65e-4,0.151458 0.172299,0.325145 0.324219,0.324219 0.15192,-9.26e-4 0.317786,-0.173682 0.316406,-0.324219 -0.0014,-0.150537 -0.170233,-0.316406 -0.320312,-0.316406 z"
       id="path14"
       sodipodi:nodetypes="zzzzz"
       inkscape:label="Star 2" />
    <path
       style="display:inline;fill:#ddcbac;fill-opacity:1;stroke:none;stroke-width:0.1;stroke-linejoin:miter;stroke-dasharray:none;stroke-opacity:1"
       d="m 30.394531,51.832031 c 0.06993,-0.168824 0.155186,-0.250896 0.324219,-0.320312 0.169033,-0.06942 0.472436,-0.07146 0.640625,0 0.168189,0.07146 0.248255,0.159268 0.316406,0.328125 0.06815,0.168857 0.06881,0.469137 0,0.636718 -0.06881,0.167581 -0.148049,0.249971 -0.316406,0.320313 -0.168357,0.07034 -0.475959,0.07103 -0.644531,0 -0.168572,-0.07103 -0.247166,-0.155605 -0.316407,-0.324219 -0.06924,-0.168614 -0.07383,-0.471801 -0.0039,-0.640625 z"
       id="path16"
       sodipodi:nodetypes="zzzzzzzzz"
       inkscape:label="Star 3" />
    <path
       style="display:inline;fill:#a04f3d;fill-opacity:1;stroke:none;stroke-width:0.1;stroke-linejoin:miter;stroke-dasharray:none;stroke-opacity:1"
       d="m 23.355469,41.277344 c 8.55e-4,-0.155698 0.199824,-0.322333 0.347656,-0.320313 0.147832,0.002 0.299371,0.14653 0.304687,0.292969 0.0053,0.146439 -0.154357,0.344663 -0.308594,0.351562 -0.154236,0.0069 -0.344604,-0.16852 -0.343749,-0.324218 z"
       id="path17"
       sodipodi:nodetypes="zzzzz"
       inkscape:label="Star 4" />
    <path
       style="display:inline;fill:#272e38;fill-opacity:1;stroke:none;stroke-width:0.1;stroke-linejoin:miter;stroke-dasharray:none;stroke-opacity:1"
       d="m 28.316406,54.714844 c -0.02344,0.195312 -0.07422,0.269531 -0.152344,0.308593 0.08594,0.02734 0.117187,0.140625 0.15625,0.335938 0.02344,-0.195313 0.07813,-0.320312 0.160157,-0.363281 -0.08203,-0.02734 -0.128907,-0.08594 -0.164063,-0.28125 z"
       id="path18"
       sodipodi:nodetypes="ccccc"
       inkscape:label="Star 5" />
    <path
       style="display:inline;fill:#453d64;fill-opacity:1;stroke:none;stroke-width:0.1;stroke-linejoin:miter;stroke-dasharray:none;stroke-opacity:1"
       d="m 34.234375,55.992187 c 1.7e-5,-0.152863 0.180293,-0.314908 0.328125,-0.316406 0.147832,-0.0015 0.309986,0.143811 0.316406,0.292969 0.0064,0.149158 -0.158264,0.338694 -0.3125,0.34375 -0.154236,0.0051 -0.332048,-0.16745 -0.332031,-0.320313 z"
       id="path19"
       sodipodi:nodetypes="zzzzz"
       inkscape:label="Star 6" />
    <path
       style="display:inline;fill:#45494c;fill-opacity:1;stroke:none;stroke-width:0.1;stroke-linejoin:miter;stroke-dasharray:none;stroke-opacity:1"
       d="m 23.986388,33.272689 c -0.0012,-0.156299 0.182298,-0.318315 0.331456,-0.320408 0.149158,-0.0021 0.311374,0.143024 0.320408,0.292786 0.009,0.149762 -0.1469,0.345051 -0.303835,0.353554 -0.156935,0.0085 -0.346792,-0.169633 -0.348029,-0.325932 z"
       id="path20"
       sodipodi:nodetypes="zzzzz"
       inkscape:label="Star 7" />
    <path
       style="display:inline;fill:#534a79;fill-opacity:1;stroke:none;stroke-width:0.1;stroke-linejoin:miter;stroke-dasharray:none;stroke-opacity:1"
       d="m 24.323368,28.6323 c 0.09763,-0.01966 0.439932,-0.361136 0.475088,-0.486136 0.03516,0.113281 0.389149,0.455557 0.475087,0.475088 -0.08203,0.02344 -0.435077,0.403434 -0.458514,0.497184 -0.02344,-0.09766 -0.394005,-0.462699 -0.491661,-0.486136 z"
       id="path21"
       sodipodi:nodetypes="ccccc"
       inkscape:label="Star 8" />
    <path
       style="display:inline;fill:#e5d8c4;fill-opacity:1;stroke:none;stroke-width:0.1;stroke-linejoin:miter;stroke-dasharray:none;stroke-opacity:1"
       d="m 26.558594,22.550781 c 0.105469,-0.01953 0.445312,-0.367187 0.476562,-0.472656 0.01953,0.105469 0.394531,0.460937 0.480469,0.472656 -0.08594,0.02734 -0.445313,0.386719 -0.476563,0.480469 -0.02344,-0.08203 -0.374999,-0.457032 -0.480468,-0.480469 z"
       id="path22"
       inkscape:label="Star 9"
       sodipodi:nodetypes="ccccc" />
    <path
       style="display:inline;fill:#dfcea9;fill-opacity:1;stroke:none;stroke-width:0.1;stroke-linejoin:miter;stroke-dasharray:none;stroke-opacity:1"
       d="m 47.359582,16.95399 c -0.0019,-0.153656 0.177788,-0.320479 0.331456,-0.320408 0.142801,6.6e-5 0.302036,0.155346 0.307741,0.298033 0.006,0.14961 -0.147174,0.329334 -0.296693,0.337258 -0.154867,0.0082 -0.340562,-0.159811 -0.342504,-0.314883 z"
       id="path23"
       sodipodi:nodetypes="aaaaa"
       inkscape:label="Star 10" />
    <path
       style="display:inline;fill:#dfcea9;fill-opacity:1;stroke:none;stroke-width:0.1;stroke-linejoin:miter;stroke-dasharray:none;stroke-opacity:1"
       d="m 50.558594,22.648437 c -0.05078,0.05859 -0.05078,0.113281 0,0.1875 0.410156,0.03125 1.1875,0.824219 1.234375,1.164063 0.05078,0.03906 0.109375,0.03906 0.15625,0 0.01953,-0.355469 0.714843,-1.113281 1.167968,-1.171875 0.04297,-0.04687 0.05078,-0.136719 0,-0.1875 -0.472656,-0.08594 -1.109374,-0.855469 -1.179687,-1.203125 -0.07422,-0.01563 -0.117187,-0.01563 -0.207031,0 -0.0625,0.347656 -0.75,1.195312 -1.171875,1.210937 z"
       id="path24"
       sodipodi:nodetypes="ccccccccc"
       inkscape:label="Star 11" />
    <path
       style="display:inline;fill:#3a3a5a;fill-opacity:1;stroke:none;stroke-width:0.1;stroke-linejoin:miter;stroke-dasharray:none;stroke-opacity:1"
       d="m 55.996094,23.347656 c -0.0018,-0.154748 0.18166,-0.314389 0.328125,-0.316406 0.146465,-0.002 0.302499,0.138717 0.3125,0.285156 0.01,0.146439 -0.138246,0.34137 -0.292969,0.351563 -0.154723,0.01019 -0.345897,-0.165565 -0.347656,-0.320313 z"
       id="path25"
       sodipodi:nodetypes="zzzzz"
       inkscape:label="Star 12" />
    <path
       style="display:inline;fill:#e2cf9c;fill-opacity:1;stroke:none;stroke-width:0.1;stroke-linejoin:miter;stroke-dasharray:none;stroke-opacity:1"
       d="m 56.316406,27.507812 c 0.0023,-0.153332 0.186757,-0.315195 0.335938,-0.3125 0.149181,0.0027 0.307241,0.159893 0.308593,0.308594 0.0014,0.148701 -0.163565,0.326278 -0.316406,0.328125 -0.152841,0.0018 -0.330436,-0.170887 -0.328125,-0.324219 z"
       id="path26"
       inkscape:label="Star 13"
       sodipodi:nodetypes="zzzzz" />
    <path
       style="display:inline;fill:#d9cbbc;fill-opacity:1;stroke:none;stroke-width:0.1;stroke-linejoin:miter;stroke-dasharray:none;stroke-opacity:1"
       d="m 57.914062,34.070312 c 0.179688,-0.02734 0.441407,-0.25 0.492188,-0.476562 0.03906,0.226562 0.28125,0.441406 0.464844,0.488281 -0.1875,0.04297 -0.445313,0.316406 -0.476563,0.46875 -0.03906,-0.152344 -0.3125,-0.429688 -0.480469,-0.480469 z"
       id="path27"
       sodipodi:nodetypes="ccccc"
       inkscape:label="Star 14" />
    <path
       style="display:inline;fill:#48455d;fill-opacity:1;stroke:none;stroke-width:0.1;stroke-linejoin:miter;stroke-dasharray:none;stroke-opacity:1"
       d="m 59.1875,41.109375 c 0.144531,-0.01953 0.320312,-0.07422 0.359375,-0.164063 0.01953,0.08984 0.152343,0.136719 0.273437,0.15625 -0.121094,0.01953 -0.253906,0.07031 -0.296875,0.171875 -0.03906,-0.09375 -0.191406,-0.144531 -0.335937,-0.164062 z"
       id="path28"
       inkscape:label="Star 15"
       sodipodi:nodetypes="ccccc" />
    <path
       style="display:inline;fill:#948a99;fill-opacity:1;stroke:none;stroke-width:0.1;stroke-linejoin:miter;stroke-dasharray:none;stroke-opacity:1"
       d="m 57.917969,48.148437 c 9.43e-4,-0.07735 0.09175,-0.155686 0.164062,-0.15625 0.07231,-5.64e-4 0.146973,0.06692 0.152344,0.140625 0.0054,0.07371 -0.06961,0.179432 -0.148438,0.183594 -0.07883,0.0042 -0.168911,-0.09062 -0.167968,-0.167969 z"
       id="path29"
       inkscape:label="Star 16"
       sodipodi:nodetypes="zzzzz" />
    <path
       style="display:inline;fill:#decfb6;fill-opacity:1;stroke:none;stroke-width:0.1;stroke-linejoin:miter;stroke-dasharray:none;stroke-opacity:1"
       d="m 54.710937,53.59375 c 0.193882,-0.05956 0.445313,-0.335938 0.484375,-0.484375 0.02344,0.148437 0.347657,0.429687 0.476563,0.46875 -0.128906,0.02344 -0.4375,0.328125 -0.476563,0.484375 -0.03516,-0.152344 -0.285156,-0.429688 -0.484375,-0.46875 z"
       id="path30"
       inkscape:label="Star 17"
       sodipodi:nodetypes="ccccc" />
    <path
       style="display:inline;fill:#393838;fill-opacity:1;stroke:none;stroke-width:0.1;stroke-linejoin:miter;stroke-dasharray:none;stroke-opacity:1"
       d="m 39.996094,55.507812 c 4.69e-4,-0.07596 0.08692,-0.154826 0.160156,-0.15625 0.07323,-0.0014 0.156025,0.06949 0.160156,0.144532 0.0041,0.07504 -0.07842,0.173494 -0.15625,0.175781 -0.07783,0.0023 -0.164531,-0.0881 -0.164062,-0.164063 z"
       id="path31"
       inkscape:label="Star 18"
       sodipodi:nodetypes="zzzzz" />
    <path
       style="display:inline;fill:#403b59;fill-opacity:1;stroke:none;stroke-width:0.1;stroke-linejoin:miter;stroke-dasharray:none;stroke-opacity:1"
       d="m 43.514688,53.414183 c 0.0013,-0.152349 0.17318,-0.30671 0.320408,-0.309359 0.147228,-0.0026 0.31811,0.141746 0.325932,0.292787 0.0078,0.151041 -0.158584,0.344124 -0.314883,0.348029 -0.156299,0.0039 -0.332793,-0.179108 -0.331457,-0.331457 z"
       id="path32"
       inkscape:label="Star 19"
       sodipodi:nodetypes="zzzzz" />
    <path
       style="display:inline;fill:#41395b;fill-opacity:1;stroke:none;stroke-width:0.1;stroke-linejoin:miter;stroke-dasharray:none;stroke-opacity:1"
       d="m 47.199219,50.875 c -0.01172,-0.08594 -0.08984,-0.292969 -0.164063,-0.324219 0.07031,-0.02734 0.140625,-0.226562 0.15625,-0.316406 0.01953,0.08984 0.08594,0.269531 0.164063,0.292969 -0.09766,0.03125 -0.140625,0.265625 -0.15625,0.347656 z"
       id="path33"
       inkscape:label="Star 20"
       sodipodi:nodetypes="ccccc" />
    <path
       style="display:inline;fill:#202738;fill-opacity:1;stroke:none;stroke-width:0.1;stroke-linejoin:miter;stroke-dasharray:none;stroke-opacity:1"
       d="m 48.320312,49.757812 c -2.2e-5,-0.07643 0.09385,-0.164498 0.167969,-0.164062 0.07412,4.36e-4 0.146685,0.07476 0.148438,0.148437 0.0018,0.07368 -0.08028,0.169598 -0.15625,0.171875 -0.07597,0.0023 -0.160135,-0.07982 -0.160157,-0.15625 z"
       id="path34"
       inkscape:label="Star 21"
       sodipodi:nodetypes="zzzzz" />
    <path
       style="display:inline;fill:#3e3056;fill-opacity:1;stroke:none;stroke-width:0.1;stroke-linejoin:miter;stroke-dasharray:none;stroke-opacity:1"
       d="m 48.957031,48.644531 c -9.49e-4,-0.15192 0.183318,-0.329602 0.332031,-0.332031 0.148713,-0.0024 0.303105,0.138983 0.308594,0.289062 0.0055,0.150079 -0.170903,0.347504 -0.324219,0.351563 -0.153316,0.0041 -0.315457,-0.156674 -0.316406,-0.308594 z"
       id="path35"
       inkscape:label="Star 22"
       sodipodi:nodetypes="zzzzz" />
    <path
       style="display:inline;fill:#5b3062;fill-opacity:1;stroke:none;stroke-width:0.1;stroke-linejoin:miter;stroke-dasharray:none;stroke-opacity:1"
       d="m 50.078125,46.710937 c -0.01563,-0.105469 -0.08203,-0.269531 -0.160156,-0.289062 0.07813,-0.02734 0.148437,-0.246094 0.160156,-0.347656 0.01953,0.101562 0.09766,0.3125 0.160156,0.34375 -0.0625,0.02344 -0.132812,0.175781 -0.160156,0.292968 z"
       id="path36"
       inkscape:label="Star 23"
       sodipodi:nodetypes="ccccc" />
    <path
       style="display:inline;fill:#2d2e54;fill-opacity:1;stroke:none;stroke-width:0.1;stroke-linejoin:miter;stroke-dasharray:none;stroke-opacity:1"
       d="m 50.238281,44.972656 c -0.0061,-0.07689 0.08371,-0.177008 0.160156,-0.179687 0.07644,-0.0027 0.153043,0.07911 0.15625,0.152343 0.0032,0.07323 -0.07087,0.161524 -0.144531,0.167969 -0.07366,0.0064 -0.165824,-0.06373 -0.171875,-0.140625 z"
       id="path37"
       inkscape:label="Star 24"
       sodipodi:nodetypes="zzzzz" />
    <path
       style="display:inline;fill:#442d54;fill-opacity:1;stroke:none;stroke-width:0.1;stroke-linejoin:miter;stroke-dasharray:none;stroke-opacity:1"
       d="m 50.232203,42.884921 c -0.0065,-0.153668 0.168059,-0.334398 0.320408,-0.33698 0.152349,-0.0026 0.316478,0.166423 0.320407,0.314883 0.0039,0.14846 -0.148565,0.31814 -0.29831,0.325932 -0.149745,0.0078 -0.335973,-0.150167 -0.342505,-0.303835 z"
       id="path38"
       inkscape:label="Star 25"
       sodipodi:nodetypes="zzzzz" />
    <path
       style="display:inline;fill:#272d49;fill-opacity:1;stroke:none;stroke-width:0.1;stroke-linejoin:miter;stroke-dasharray:none;stroke-opacity:1"
       d="m 50.074219,41.59375 c -0.01563,-0.09766 -0.08594,-0.289063 -0.160157,-0.320313 0.07422,-0.02344 0.136719,-0.207031 0.15625,-0.316406 0.01953,0.113281 0.101563,0.296875 0.167969,0.324219 -0.07422,0.01563 -0.144531,0.21875 -0.164062,0.3125 z"
       id="path39"
       inkscape:label="Star 26"
       sodipodi:nodetypes="ccccc" />
    <path
       style="display:inline;fill:#282d4d;fill-opacity:1;stroke:none;stroke-width:0.1;stroke-linejoin:miter;stroke-dasharray:none;stroke-opacity:1"
       d="m 49.273437,41.273437 c -0.150537,-4.62e-4 -0.316868,-0.169775 -0.316406,-0.320312 4.62e-4,-0.150537 0.169776,-0.320775 0.320313,-0.320313 0.150537,4.62e-4 0.316868,0.169776 0.316406,0.320313 -4.62e-4,0.150537 -0.169776,0.320774 -0.320313,0.320312 z"
       id="path40"
       inkscape:label="Star 27"
       sodipodi:nodetypes="zzzzz" />
    <path
       style="display:inline;fill:#595a57;fill-opacity:1;stroke:none;stroke-width:0.1;stroke-linejoin:miter;stroke-dasharray:none;stroke-opacity:1"
       d="m 54.890625,33.597656 c -0.01172,-0.09766 -0.113281,-0.308594 -0.175781,-0.34375 0.07031,-0.0078 0.140624,-0.199218 0.167968,-0.304687 0.01563,0.105469 0.08984,0.281249 0.15625,0.308593 -0.0625,0.03516 -0.125,0.234375 -0.148437,0.339844 z"
       id="path41"
       inkscape:label="Star 28"
       sodipodi:nodetypes="ccccc" />
    <path
       style="display:inline;fill:#282c3d;fill-opacity:1;stroke:none;stroke-width:0.1;stroke-linejoin:miter;stroke-dasharray:none;stroke-opacity:1"
       d="m 50.878543,30.703902 c 0,-0.151042 0.167061,-0.311614 0.314883,-0.314883 0.147822,-0.0033 0.319417,0.147269 0.325932,0.29831 0.0065,0.151041 -0.160552,0.339264 -0.314883,0.342505 -0.154331,0.0032 -0.325932,-0.17489 -0.325932,-0.325932 z"
       id="path42"
       inkscape:label="Star 29"
       sodipodi:nodetypes="zzzzz" />
    <path
       style="display:inline;fill:#70336f;fill-opacity:1;stroke:none;stroke-width:0.1;stroke-linejoin:miter;stroke-dasharray:none;stroke-opacity:1"
       d="m 49.596912,29.930504 c 0.138107,-0.02762 0.447465,-0.325932 0.480611,-0.497184 0.03315,0.160204 0.336981,0.441941 0.475088,0.475087 -0.160204,0.04419 -0.430894,0.353554 -0.458515,0.480612 -0.04419,-0.127058 -0.353553,-0.430894 -0.497184,-0.458515 z"
       id="path43"
       inkscape:label="Star 30"
       sodipodi:nodetypes="ccccc" />
    <path
       style="display:inline;fill:#2c2e4c;fill-opacity:1;stroke:none;stroke-width:0.1;stroke-linejoin:miter;stroke-dasharray:none;stroke-opacity:1"
       d="m 47.03125,29.285156 c 0.109375,-0.01172 0.304687,-0.08594 0.320312,-0.171875 0.03516,0.08984 0.238282,0.140625 0.332032,0.148438 -0.105469,0.02734 -0.289063,0.09766 -0.324219,0.175781 -0.04297,-0.07813 -0.21875,-0.132813 -0.328125,-0.152344 z"
       id="path44"
       inkscape:label="Star 31"
       sodipodi:nodetypes="ccccc" />
    <path
       style="display:inline;fill:#262d48;fill-opacity:1;stroke:none;stroke-width:0.1;stroke-linejoin:miter;stroke-dasharray:none;stroke-opacity:1"
       d="m 45.117187,29.605469 c 0.09766,-0.01563 0.300782,-0.109375 0.332032,-0.171875 0.02344,0.0625 0.203124,0.144531 0.304687,0.160156 -0.08984,0.01563 -0.289062,0.09766 -0.316406,0.164062 -0.02344,-0.06641 -0.222657,-0.136718 -0.320313,-0.152343 z"
       id="path45"
       inkscape:label="Star 32"
       sodipodi:nodetypes="ccccc" />
    <path
       style="display:inline;fill:#292e51;fill-opacity:1;stroke:none;stroke-width:0.1;stroke-linejoin:miter;stroke-dasharray:none;stroke-opacity:1"
       d="m 43.515625,29.921875 c -0.0019,-0.07831 0.09499,-0.169372 0.171875,-0.167969 0.07688,0.0014 0.152344,0.08648 0.152344,0.160156 0,0.07368 -0.07729,0.156959 -0.152344,0.160157 -0.07505,0.0032 -0.169969,-0.07403 -0.171875,-0.152344 z"
       id="path46"
       inkscape:label="Star 33"
       sodipodi:nodetypes="zzzzz" />
    <path
       style="display:inline;fill:#393761;fill-opacity:1;stroke:none;stroke-width:0.1;stroke-linejoin:miter;stroke-dasharray:none;stroke-opacity:1"
       d="m 29.109375,46.097656 c -0.0043,-0.157036 0.193179,-0.340262 0.34375,-0.34375 0.150571,-0.0035 0.299108,0.131601 0.308594,0.28125 0.0095,0.149649 -0.156422,0.356654 -0.3125,0.367188 -0.156078,0.01053 -0.335564,-0.147652 -0.339844,-0.304688 z"
       id="path47"
       inkscape:label="Star 34"
       sodipodi:nodetypes="zzzzz" />
    <path
       style="display:inline;fill:#54585c;fill-opacity:1;stroke:none;stroke-width:0.1;stroke-linejoin:miter;stroke-dasharray:none;stroke-opacity:1"
       d="m 32.636719,47.042969 c -0.0037,-0.152863 0.174139,-0.32626 0.324218,-0.328125 0.150079,-0.0019 0.311826,0.156441 0.316407,0.304687 0.0046,0.148246 -0.153691,0.325586 -0.304688,0.332031 -0.150997,0.0064 -0.332238,-0.15573 -0.335937,-0.308593 z"
       id="path48"
       inkscape:label="Star 35"
       sodipodi:nodetypes="zzzzz" />
    <path
       style="display:inline;fill:#2d3059;fill-opacity:1;stroke:none;stroke-width:0.1;stroke-linejoin:miter;stroke-dasharray:none;stroke-opacity:1"
       d="m 34.234375,47.195312 c 0.136719,-0.03906 0.460937,-0.347656 0.484375,-0.476562 0.03516,0.128906 0.363281,0.453125 0.476562,0.476562 -0.113281,0.03125 -0.441406,0.335938 -0.46875,0.480469 -0.03516,-0.144531 -0.355468,-0.460938 -0.492187,-0.480469 z"
       id="path49"
       inkscape:label="Star 36"
       sodipodi:nodetypes="ccccc" />
    <path
       style="fill:#3a345c;fill-opacity:1;stroke:none;stroke-width:0.1;stroke-linejoin:miter;stroke-dasharray:none;stroke-opacity:1"
       d="m 36.648437,47.351562 c -0.01953,-0.09375 -0.113281,-0.285156 -0.171875,-0.3125 0.0625,-0.02734 0.148438,-0.234374 0.164063,-0.324218 0.01563,0.08984 0.08594,0.296875 0.15625,0.3125 -0.07031,0.01953 -0.125,0.230468 -0.148438,0.324218 z"
       id="path50"
       inkscape:label="Star 37"
       sodipodi:nodetypes="ccccc" />
    <path
       style="fill:#202738;fill-opacity:1;stroke:none;stroke-width:0.1;stroke-linejoin:miter;stroke-dasharray:none;stroke-opacity:1"
       d="m 38.234375,46.710937 c -0.07596,0.0014 -0.159212,-0.07684 -0.160156,-0.152343 -9.44e-4,-0.0755 0.08901,-0.162638 0.164062,-0.164063 0.07505,-0.0014 0.158279,0.07293 0.160156,0.148438 0.0019,0.0755 -0.0881,0.166572 -0.164062,0.167968 z"
       id="path51"
       inkscape:label="Star 38"
       sodipodi:nodetypes="zzzzz" />
    <path
       style="fill:#242a43;fill-opacity:1;stroke:none;stroke-width:0.1;stroke-linejoin:miter;stroke-dasharray:none;stroke-opacity:1"
       d="m 39.199219,46.070312 c -0.0778,4.58e-4 -0.164995,-0.08764 -0.164063,-0.164062 9.32e-4,-0.07643 0.08899,-0.155776 0.164063,-0.15625 0.07507,-4.74e-4 0.162198,0.07592 0.164062,0.152344 0.0019,0.07642 -0.08626,0.16751 -0.164062,0.167968 z"
       id="path52"
       inkscape:label="Star 39"
       sodipodi:nodetypes="zzzzz" />
    <path
       style="fill:#2d324f;fill-opacity:1;stroke:none;stroke-width:0.1;stroke-linejoin:miter;stroke-dasharray:none;stroke-opacity:1"
       d="m 47.03125,23.335937 c -0.154723,0.0036 -0.322154,-0.169304 -0.320313,-0.320312 0.0018,-0.151008 0.182548,-0.310447 0.328125,-0.3125 0.145577,-0.0021 0.305106,0.132095 0.3125,0.28125 0.0074,0.149155 -0.165589,0.347966 -0.320312,0.351562 z"
       id="path53"
       inkscape:label="Star 40"
       sodipodi:nodetypes="zzzzz" />
    <path
       style="fill:#4d4480;fill-opacity:1;stroke:none;stroke-width:0.1;stroke-linejoin:miter;stroke-dasharray:none;stroke-opacity:1"
       d="m 42.078125,22.382812 c -0.07458,0.0028 -0.161289,-0.07385 -0.164063,-0.148437 -0.0028,-0.07458 0.08167,-0.161289 0.15625,-0.164063 0.07458,-0.0028 0.161289,0.07385 0.164063,0.148438 0.0028,0.07458 -0.08167,0.161288 -0.15625,0.164062 z"
       id="path54"
       inkscape:label="Star 41"
       sodipodi:nodetypes="zzzzz" />
    <path
       style="fill:#4d4480;fill-opacity:1;stroke:none;stroke-width:0.1;stroke-linejoin:miter;stroke-dasharray:none;stroke-opacity:1"
       d="m 36.148437,25.4375 c 0.101563,-0.02344 0.292969,-0.101563 0.320313,-0.164063 0.02344,0.05469 0.238281,0.144532 0.328125,0.148438 -0.08203,0.01953 -0.3125,0.125 -0.320313,0.171875 -0.01953,-0.05078 -0.230469,-0.148438 -0.328125,-0.15625 z"
       id="path55"
       inkscape:label="Star 42"
       sodipodi:nodetypes="ccccc" />
    <path
       style="fill:#242c3f;fill-opacity:1;stroke:none;stroke-width:0.1;stroke-linejoin:miter;stroke-dasharray:none;stroke-opacity:1"
       d="m 34.875,27.179687 c -0.14826,9.38e-4 -0.31663,-0.157373 -0.320313,-0.304687 -0.0037,-0.147314 0.154609,-0.315725 0.304688,-0.320313 0.150079,-0.0046 0.334141,0.161458 0.335937,0.3125 0.0018,0.151042 -0.172052,0.311562 -0.320312,0.3125 z"
       id="path56"
       inkscape:label="Star 43"
       sodipodi:nodetypes="zzzzz" />
    <path
       style="fill:#30304a;fill-opacity:1;stroke:none;stroke-width:0.1;stroke-linejoin:miter;stroke-dasharray:none;stroke-opacity:1"
       d="m 33.117187,29.117187 c -0.02344,-0.08594 -0.113281,-0.300781 -0.164062,-0.320312 0.05078,-0.01953 0.144531,-0.230469 0.148437,-0.320313 0.01953,0.08594 0.121094,0.3125 0.179688,0.328125 -0.0625,0.02344 -0.144532,0.238281 -0.164063,0.3125 z"
       id="path57"
       inkscape:label="Star 44"
       sodipodi:nodetypes="ccccc" />
    <path
       style="fill:#32304b;fill-opacity:1;stroke:none;stroke-width:0.1;stroke-linejoin:miter;stroke-dasharray:none;stroke-opacity:1"
       d="m 32.632812,31.03125 c -0.151008,0.0019 -0.315732,-0.152768 -0.320312,-0.304688 -0.0046,-0.15192 0.165621,-0.340089 0.320312,-0.34375 0.154691,-0.0037 0.327199,0.166551 0.328125,0.320313 9.26e-4,0.153762 -0.177117,0.326238 -0.328125,0.328125 z"
       id="path58"
       inkscape:label="Star 45"
       sodipodi:nodetypes="zzzzz" />
    <path
       style="fill:#323367;fill-opacity:1;stroke:none;stroke-width:0.1;stroke-linejoin:miter;stroke-dasharray:none;stroke-opacity:1"
       d="m 32.15625,32.945312 c -0.07366,0.0037 -0.161264,-0.07201 -0.164063,-0.148437 -0.0028,-0.07643 0.08854,-0.171965 0.164063,-0.171875 0.07552,9e-5 0.147552,0.08346 0.148437,0.15625 8.85e-4,0.07279 -0.07478,0.160379 -0.148437,0.164062 z"
       id="path59"
       inkscape:label="Star 46"
       sodipodi:nodetypes="zzzzz" />
    <path
       style="fill:#323468;fill-opacity:1;stroke:none;stroke-width:0.1;stroke-linejoin:miter;stroke-dasharray:none;stroke-opacity:1"
       d="m 32.15625,33.90625 c -0.07279,0.0028 -0.15942,-0.06604 -0.164063,-0.140625 -0.0046,-0.07458 0.07982,-0.169124 0.15625,-0.171875 0.07643,-0.0028 0.163154,0.08167 0.164063,0.15625 9.09e-4,0.07458 -0.08346,0.153455 -0.15625,0.15625 z"
       id="path60"
       inkscape:label="Star 47"
       sodipodi:nodetypes="zzzzz" />
    <path
       style="fill:#4d3876;fill-opacity:1;stroke:none;stroke-width:0.1;stroke-linejoin:miter;stroke-dasharray:none;stroke-opacity:1"
       d="m 32.46875,36.140625 c -0.01953,-0.09375 -0.09375,-0.273438 -0.164063,-0.3125 0.07031,-0.02344 0.144532,-0.242188 0.164063,-0.320313 0.01953,0.07813 0.109375,0.292969 0.164062,0.3125 -0.05469,0.02344 -0.144531,0.21875 -0.164062,0.320313 z"
       id="path61"
       inkscape:label="Star 48"
       sodipodi:nodetypes="ccccc" />
    <path
       style="fill:#353463;fill-opacity:1;stroke:none;stroke-width:0.1;stroke-linejoin:miter;stroke-dasharray:none;stroke-opacity:1"
       d="m 32.789062,36.789062 c -0.07643,9.8e-4 -0.155294,-0.07385 -0.15625,-0.148437 -9.56e-4,-0.07458 0.08943,-0.161197 0.164063,-0.164063 0.07463,-0.0029 0.161125,0.06416 0.164062,0.140625 0.0029,0.07647 -0.09545,0.170895 -0.171875,0.171875 z"
       id="path62"
       inkscape:label="Star 49"
       sodipodi:nodetypes="zzzzz" />
    <path
       style="fill:#4d3870;fill-opacity:1;stroke:none;stroke-width:0.1;stroke-linejoin:miter;stroke-dasharray:none;stroke-opacity:1"
       d="m 33.109375,37.75 c -0.07458,9.56e-4 -0.154404,-0.07294 -0.15625,-0.148438 -0.0018,-0.0755 0.08764,-0.170986 0.164062,-0.171875 0.07643,-8.89e-4 0.15625,0.08075 0.15625,0.15625 0,0.0755 -0.08948,0.163107 -0.164062,0.164063 z"
       id="path63"
       inkscape:label="Star 50"
       sodipodi:nodetypes="zzzzz" />
    <path
       style="display:inline;fill:#352f62;fill-opacity:1;stroke:none;stroke-width:0.1;stroke-linejoin:miter;stroke-dasharray:none;stroke-opacity:1"
       d="m 44.78125,19.195312 c 0.403172,0.636896 0.709536,-0.281635 -0.304688,0.640625 -1.014224,0.92226 -5.244864,1.411085 -7.0625,2.570313 -1.817636,1.159228 -3.084774,2.880012 -3.828125,3.835937 -0.743351,0.955925 -0.619744,0.94824 -0.945312,1.585938 -0.325568,0.637698 -0.703101,0.961261 -0.96875,2.25 -0.265649,1.288739 -0.265649,4.156574 0,5.445313 0.265649,1.288739 0.540608,1.502795 0.96875,2.249999 0.428142,0.747204 0.850601,2.50322 1.60986,2.189145 0.759259,-0.314075 -0.171048,-1.443414 -0.331457,-2.187612 -0.160409,-0.744198 -0.508259,-1.300571 -0.637778,-2.267158 -0.129519,-0.966587 -0.168511,-2.526011 0.02734,-3.496093 0.195851,-0.970082 0.710956,-1.780367 0.929687,-2.257813 0.218731,-0.477446 -0.236291,0.135438 0.320313,-0.632812 0.556604,-0.76825 2.732727,-2.875834 3.523437,-3.523438 0.79071,-0.647604 0.584099,-0.420836 0.957031,-0.636719 0.372932,-0.215883 0.171331,-0.378402 1.285157,-0.640625 1.113826,-0.262223 3.756674,-0.290027 5.429687,0 1.673013,0.290027 3.370453,1.08983 4.480469,1.601563 1.110016,0.511733 1.591008,0.792173 2.234375,1.28125 0.643367,0.489077 1.451056,1.200001 1.617187,1.597656 0.166131,0.397655 0.04882,0.19463 0,0.3125 -0.04882,0.11787 -0.197645,0.271144 -0.320312,0.320313 -0.122667,0.04917 0.226089,0.118539 -0.339844,-0.0078 -0.565933,-0.126339 -1.733537,-1.029855 -2.871094,-1.269531 -1.137557,-0.239676 -3.173966,-0.270692 -3.835937,0.0039 -0.661971,0.274592 -0.05424,0.215628 -0.328125,0.328125 -0.27389,0.112497 -1.04567,-0.125369 -1.3125,-0.0078 -0.26683,0.117569 -0.0035,0.196586 -0.292969,0.324218 -0.28943,0.127632 -1.128767,-0.179448 -1.460937,-0.0078 -0.33217,0.171648 -0.261314,0.477833 -0.449219,0.640625 -0.187905,0.162792 -0.412869,0.267119 -0.632813,0.320312 -0.219944,0.05319 -0.428016,-0.04855 -0.648437,0.0039 -0.220421,0.05245 -0.233639,0.02738 -0.636719,0.316406 -0.40308,0.289026 -1.317731,1.133986 -1.605469,1.597656 -0.287738,0.46367 -0.181756,0.760955 -0.320312,0.957031 -0.138556,0.196076 -0.32523,0.110456 -0.339844,0.265625 -0.01461,0.155169 0.169192,0.179369 0.332031,0.378907 0.162839,0.199538 -0.248275,0.779458 0.629785,0.82951 0.87806,0.05005 2.19585,-2.590049 2.927864,-3.060447 0.732014,-0.470398 0.561687,-0.213844 0.930633,-0.323751 0.368946,-0.109907 0.748775,-0.254475 1.285156,-0.320312 0.536381,-0.06584 1.383477,-0.06697 1.917969,0 0.534492,0.06697 0.899988,0.215821 1.273437,0.324218 0.373449,0.108397 0.481294,0.117386 0.96875,0.316407 0.487456,0.199021 1.68812,0.558711 1.917969,0.949218 0.229849,0.390507 -0.256653,0.175065 -0.02734,0.578125 0.229313,0.40306 1.16466,0.457307 1.945313,1.035157 0.780653,0.57785 2.129674,1.978152 2.5625,2.5625 0.432826,0.584348 0.07671,0.122415 0.347656,0.652343 0.270946,0.529928 1.00661,1.839577 1.246094,2.542969 0.239484,0.703392 0.209783,1.168796 0.324218,1.59375 0.114435,0.424954 0.193684,0.163198 0.324219,0.960938 0.130535,0.79774 0.297622,3.105893 -0.0039,3.835937 -0.301522,0.730044 -0.450126,0.561632 -0.636719,0.640625 -0.186593,0.07899 -0.14419,0.0436 -0.3125,0.0039 -0.16831,-0.0397 -0.472592,-0.04906 -0.644537,-0.332049 -0.171945,-0.282985 0.189596,-1.075448 0.0039,-1.261719 -0.185696,-0.186271 -0.09147,-0.224378 -0.3164,0 -0.224929,0.224378 0.06579,1.160432 -0.0039,1.589844 -0.06969,0.429412 -0.02742,0.262162 -0.320313,0.96875 -0.292892,0.706588 -1.166764,2.582636 -1.605469,3.1875 -0.438705,0.604864 -0.491335,0.423848 -0.648437,0.644531 -0.157102,0.220683 0.110061,0.05065 -0.308594,0.640625 -0.418655,0.589971 -1.980628,2.14093 -2.566406,2.566407 -0.585778,0.425477 0.0028,0.0029 -0.636719,0.324218 -0.639482,0.321308 -2.501586,1.294996 -3.207031,1.589844 -0.705445,0.294848 -0.580377,0.21774 -0.953125,0.328125 -0.372748,0.110385 -0.749931,0.255727 -1.285156,0.320313 -0.535225,0.06459 -1.611074,0.294341 -1.910157,-0.0078 -0.299083,-0.302141 -0.157002,-0.419675 0.0039,-0.640625 0.160902,-0.22095 0.57448,-0.158092 0.949218,-0.3125 0.374738,-0.154408 0.854166,-0.427734 1.28125,-0.640625 0.427084,-0.212891 1.02708,-0.453995 1.28125,-0.636719 0.25417,-0.182724 0.156704,-0.201298 0.316407,-0.316406 0.159703,-0.115108 0.06739,0.09698 0.65625,-0.328125 0.588859,-0.425108 2.140182,-1.978829 2.558593,-2.566406 0.418411,-0.587577 0.192923,-0.475608 0.308594,-0.632813 0.115671,-0.157205 0.224977,-0.161761 0.339844,-0.320312 0.114867,-0.158551 0.145151,-0.319019 0.300781,-0.640625 0.15563,-0.321606 0.482832,-0.853992 0.640625,-1.285156 0.157793,-0.431164 0.20616,-0.889419 0.3125,-1.28125 0.10634,-0.391831 0.197467,-0.234233 0.320313,-1.070313 0.122846,-0.83608 0.238281,-3.243566 0.0039,-3.953125 -0.234381,-0.709559 -0.197522,-0.197678 -0.316399,-0.425794 -0.118877,-0.228116 -0.214193,-0.642579 -0.320313,-0.960938 -0.10612,-0.318359 -0.209182,-0.684862 -0.316406,-0.949218 -0.107224,-0.264356 -0.194511,-0.480862 -0.308594,-0.640625 -0.114083,-0.159763 -0.262149,-0.160816 -0.332031,-0.328125 -0.06988,-0.167309 0.110069,-0.508345 0,-0.621094 -0.110069,-0.112749 -0.172478,-0.157152 -0.324219,-0.0078 -0.151741,0.149352 0.231996,0.725252 0.0078,0.953125 -0.224196,0.227873 -0.651435,-0.306211 -0.964844,0.0078 -0.313409,0.314011 -0.166463,1.385905 -0.01046,1.697012 0.156003,0.311107 0.06898,-0.251131 0.314883,0.23202 0.245898,0.483151 0.264519,2.379239 0.01657,2.861573 -0.247949,0.482334 -0.161813,-0.0823 -0.320407,0.226495 -0.158594,0.308795 0.08366,1.243339 0.01105,1.690427 -0.07261,0.447088 -0.218395,0.703214 -0.331456,0.972272 -0.113061,0.269058 -0.218209,0.432735 -0.325932,0.64634 -0.107723,0.213605 -0.20877,0.478081 -0.320408,0.635291 -0.111638,0.15721 -0.197518,0.162333 -0.309359,0.320408 -0.111841,0.158075 -0.02834,0.23706 -0.320408,0.640815 -0.292066,0.403755 -1.206497,1.313211 -1.613087,1.602039 -0.40659,0.288828 -0.490352,0.200518 -0.64634,0.314883 -0.155988,0.114365 0.139077,-0.0084 -0.303835,0.320408 -0.442912,0.328843 -1.85373,1.048044 -2.563262,1.287155 -0.709532,0.239111 -1.221547,0.26358 -1.596515,0.298311 -0.374968,0.03473 0.165154,0.02866 -0.635291,0 -0.800445,-0.02866 -3.202152,-0.165169 -4.159777,-0.298311 -0.957625,-0.133142 -1.222464,-0.131568 -1.596514,-0.331456 -0.37405,-0.199888 -0.570686,-0.451747 -0.651864,-0.640815 -0.08118,-0.189068 -0.0451,-0.151332 -0.0055,-0.320408 0.0396,-0.169076 0.186285,-0.550653 0.331456,-0.640816 0.145171,-0.09016 0.158004,0.140382 0.303835,-0.0055 0.145831,-0.145882 0.198871,-0.744809 0.01657,-0.933602 -0.182301,-0.188793 -0.471468,0.06165 -0.640816,-0.01105 -0.169348,-0.0727 -0.202246,-0.278443 -0.325932,-0.331457 -0.123686,-0.05301 -0.267668,0.07331 -0.342505,-0.0055 -0.07484,-0.07881 0.156637,-0.159356 0.01105,-0.309359 -0.145587,-0.150003 -0.792564,0.151579 -0.944651,0.0055 -0.152087,-0.146079 0.0638,-0.248097 -0.01105,-0.320408 -0.07485,-0.07231 -0.228341,0.07425 -0.303835,0 -0.07549,-0.07425 -0.5301,0.201216 -0.0055,-0.331456 0.5246,-0.532672 3.62205,0.527952 4.154252,0.0055 0.532202,-0.522452 -0.184011,-0.134926 0.0055,-0.320407 0.189511,-0.185481 1.078847,0.190045 1.270583,0.0055 0.191736,-0.184545 -0.214212,-0.09582 0.01105,-0.325932 0.225262,-0.230117 1.109825,0.01804 1.603552,-0.08862 0.493727,-0.106663 0.887775,-0.274485 1.328125,-0.515625 0.44035,-0.24114 0.963278,-0.658522 1.28125,-0.9375 0.317972,-0.278978 0.57792,-0.488622 0.65625,-0.6875 0.07833,-0.198878 0.157245,-0.172768 -0.0039,-0.332031 -0.161145,-0.159263 -0.793483,0.233861 -1.027344,0 -0.233861,-0.233861 0.06614,-0.74481 0,-0.957032 -0.06614,-0.212222 0.848433,0.24757 -0.214005,-0.31001 -1.062438,-0.55758 -5.530271,0.206319 -6.822475,0 -1.292204,-0.206319 -0.285756,-0.209298 -0.977796,-0.320407 -0.69204,-0.111109 -2.545522,0.259595 -3.176456,-0.0055 C 28.818974,43.575527 29.018983,43.334803 28.798044,43.17771 28.577105,43.020617 28.326954,42.989221 28.168277,42.879399 28.0096,42.769577 27.95099,42.719166 27.83682,42.558991 27.72265,42.398816 27.690273,42.127725 27.532985,41.907127 27.375697,41.686529 27.040274,41.496568 26.881121,41.27736 c -0.159153,-0.219208 -0.201783,-0.486261 -0.314883,-0.646339 -0.1131,-0.160078 -0.192327,-0.118727 -0.320408,-0.325932 -0.128081,-0.207205 -0.216221,-0.684704 -0.325932,-0.950175 -0.109711,-0.265471 -0.200107,-0.488253 -0.314884,-0.64634 -0.114777,-0.158087 -0.196056,-0.107155 -0.325932,-0.314884 -0.129876,-0.207729 -0.252655,-0.590622 -0.314883,-0.966747 -0.06223,-0.376125 0.170851,-1.08559 -0.01657,-1.270583 -0.187421,-0.184993 -0.235118,0.0755 -0.309359,0 -0.07424,-0.0755 -0.108571,-0.214745 0.0055,-0.325932 0.114071,-0.111187 0.463323,-0.0643 0.629767,0.0055 0.166444,0.0698 0.15067,0.113921 0.320408,0.320407 0.169738,0.206486 0.483183,0.685961 0.640815,0.955699 0.157632,0.269738 0.107718,0.457405 0.325932,0.64634 0.218214,0.188935 0.82479,0.145254 0.955699,0.320408 0.130909,0.175154 -0.05999,0.231497 0.01105,0.303835 0.07104,0.07234 0.228282,0.08687 0.303835,0.01657 0.07555,-0.0703 0.07842,-0.239369 0.0055,-0.314884 -0.07292,-0.07551 -0.135831,0.127125 -0.314883,-0.0055 -0.179052,-0.132625 -0.208063,-0.650939 -0.314884,-0.972272 -0.106821,-0.321333 -0.216784,-0.582176 -0.325932,-0.955699 -0.109148,-0.373523 -0.210864,-0.434569 -0.314883,-1.287155 -0.104019,-0.852586 -0.1171,-2.978233 -0.01105,-3.82832 0.10605,-0.850087 0.21638,-0.899812 0.325932,-1.270583 0.109552,-0.370771 0.212677,-0.632531 0.320408,-0.955699 0.107731,-0.323168 0.196406,-0.775448 0.325932,-0.98332 0.129526,-0.207872 0.197579,-0.149648 0.309359,-0.303835 0.11178,-0.154187 0.198755,-0.477806 0.314884,-0.635292 0.116129,-0.157486 0.220058,-0.162995 0.33698,-0.320407 0.116922,-0.157412 0.209059,-0.477063 0.320408,-0.635292 0.111349,-0.158229 0.198396,-0.16592 0.309359,-0.325932 0.110963,-0.160012 -0.151256,0.0048 0.314884,-0.646339 0.46614,-0.651175 2.158165,-2.339531 2.900242,-2.878146 0.742077,-0.538615 1.006974,-0.467371 1.259534,-0.64634 0.25256,-0.178969 0.161606,-0.190531 0.320408,-0.303835 0.158802,-0.113304 0.379885,-0.22532 0.64634,-0.33698 0.266455,-0.11166 0.690208,-0.19861 0.955699,-0.309359 0.265491,-0.110749 0.116401,-0.135802 0.640815,-0.331457 0.524414,-0.195655 1.759978,-0.462891 2.563263,-0.618718 0.803285,-0.155827 1.236834,-0.256355 2.248378,-0.331456 1.011544,-0.0751 3.410109,-0.643951 3.813281,-0.0071 z"
       id="path64"
       sodipodi:nodetypes="zzzzzzzzzzzzzzzzzzzzzzzzzzzzzzzzzzzzzzzzzzzzzzzzzzzzzzzzzzzzzzzzzzzzzzzzzzzzzzzzzzzzzzzzzzzzzzzzzzzzzzzzzzzzzzzzzzzzzzzzzzzzzzzzzzzzzzzzzzzzzzzzzzzzzzzzzzzzzzzzzzzzzzzzzzzzzzzzzzzzzzzz"
       inkscape:label="Galaxy 1" />
    <path
       style="fill:#913068;fill-opacity:1;stroke:none;stroke-width:0.1;stroke-linejoin:miter;stroke-dasharray:none;stroke-opacity:1"
       d="m 30.07966,43.829572 c -0.31982,0.360807 -0.04863,0.191952 0,0.309359 0.04863,0.117407 0.164058,0.206054 0.320407,0.320408 0.156349,0.114354 0.310612,0.16322 0.629767,0.325932 0.319155,0.162712 0.855648,0.486294 1.287156,0.64634 0.431508,0.160046 0.271739,0.196084 1.281631,0.320407 1.009892,0.124323 3.88802,0.203517 4.784019,0 0.895999,-0.203517 0.441021,-0.208982 0.657388,-0.314883 0.216367,-0.105901 0.429052,-0.214526 0.640816,-0.320408 0.211764,-0.105882 0.472289,-0.202399 0.629767,-0.314883 0.157478,-0.112484 0.218205,-0.212681 0.325932,-0.320408 0.107727,-0.107727 0.16043,-0.164581 0.320408,-0.325932 0.159978,-0.161351 0.561619,-0.454326 0.640815,-0.640816 0.0792,-0.18649 -0.105505,-0.20031 0.0055,-0.309359 0.111005,-0.109049 0.325199,-0.297315 0.624243,0 0.299044,0.297315 0.269716,1.641119 0.01105,1.905874 -0.258666,0.264755 -0.05713,-0.104783 -0.314884,0.0055 -0.257755,0.110283 -0.679707,0.769624 -0.961223,0.972272 -0.281516,0.202648 -0.481671,0.204122 -0.640816,0.314884 -0.159145,0.110762 -0.16592,0.198396 -0.325932,0.309359 -0.160012,0.110963 -0.433637,0.20713 -0.646339,0.314883 -0.212702,0.107753 -0.363945,0.21911 -0.629767,0.331457 C 38.453776,47.471905 38.017012,47.565049 37.75,47.675781 37.482988,47.786513 37.201825,47.853507 37.113281,48 c -0.08854,0.146493 -0.07023,0.238383 0.0039,0.3125 0.07413,0.07412 0.204076,-0.10844 0.316407,0.0039 0.112331,0.11234 -0.292097,0.243973 0.0078,0.636719 0.299897,0.392746 1.697015,0.562431 2.238281,0.640625 0.541266,0.07819 0.628714,0.05949 0.953125,0.0078 0.324411,-0.05169 0.588361,-0.167472 0.964844,-0.324218 0.376483,-0.156746 0.960379,-0.414039 1.277362,-0.640607 0.316983,-0.226568 0.570333,-0.44734 0.648437,-0.636719 0.0781,-0.189379 -0.07848,-0.244817 -0.0039,-0.320313 0.07458,-0.0755 0.241368,-0.07504 0.316406,0 0.07504,0.07504 -0.07504,0.244353 0,0.320313 0.07504,0.07596 0.231414,-0.141512 0.320313,0.0039 0.0889,0.145412 -0.248999,0.358408 -0.3125,0.628906 -0.0635,0.270498 -0.188866,0.777138 0,0.964844 0.188866,0.187706 0.327096,0.123104 0.632812,-0.0039 0.305716,-0.127004 0.680224,-0.751151 0.960938,-0.953125 0.280714,-0.201974 0.364064,-0.121118 0.644531,-0.324219 0.280467,-0.203101 0.755352,-0.680522 0.957031,-0.960937 0.201679,-0.280415 0.118096,-0.359463 0.320313,-0.640625 0.202217,-0.281162 0.75872,-0.683682 0.960937,-0.964844 0.202217,-0.281162 0.09709,0.304971 0.320313,-0.640625 0.223225,-0.945596 0.253888,-4.05227 0,-5.113281 -0.253888,-1.061011 -0.464418,-1.02204 -0.648438,-1.277344 -0.18402,-0.255304 -0.206166,-0.166062 -0.320312,-0.324219 -0.114146,-0.158157 -0.121654,-0.358436 -0.324219,-0.636719 -0.202565,-0.278283 -0.701487,-0.84571 -0.957031,-0.953125 -0.255544,-0.107415 -0.238386,0.07114 -0.3125,-0.0039 -0.07411,-0.07504 -0.07504,-0.245274 0,-0.320312 0.07504,-0.07504 0.126482,0.07867 0.316406,0 0.189924,-0.07867 0.410996,-0.550086 0.648438,-0.648438 0.237442,-0.09835 0.409692,-0.05757 0.625,0 0.215308,0.05757 0.328424,0.110449 0.617187,0.355469 0.288763,0.24502 0.861718,0.855857 0.988281,1.207031 0.126563,0.351174 -0.0981,0.434387 0.0039,0.679688 0.101998,0.245301 0.424672,0.4907 0.644531,0.648437 0.219859,0.157737 0.294925,0.06806 0.636719,0.3125 0.341794,0.244437 1.03387,0.939783 1.28125,1.28125 0.24738,0.341467 0.21156,0.484085 0.324218,0.640625 0.112658,0.15654 0.09407,0.222335 0.308594,0.3125 0.214527,0.09016 0.738338,0.09243 0.957031,0.0039 0.218693,-0.08853 0.194689,-0.0047 0.328125,-0.320312 0.133436,-0.315656 0.0747,-1.167938 0.0039,-1.597656 -0.0708,-0.429718 -0.216799,-0.69403 -0.328117,-0.960938 C 53.322276,38.127623 53.219401,37.963542 53.113281,37.75 53.007161,37.536458 52.910115,37.2708 52.796875,37.113281 52.683635,36.955762 52.590506,36.951057 52.476562,36.792969 52.362618,36.634881 52.402611,36.493053 52.15625,36.152344 51.909889,35.811635 51.260464,35.03788 50.875,34.878906 c -0.385464,-0.158974 -0.323793,0.11504 -0.695313,0 -0.37152,-0.11504 -1.247924,-0.605459 -1.351562,-0.925781 -0.103638,-0.320322 -0.05411,-0.230588 0.128906,-0.359375 0.183017,-0.128787 0.810402,-0.150536 0.960938,0 0.150536,0.150536 -0.04889,0.197359 0,0.316406 0.04889,0.119047 -0.09339,0.151386 0.320312,0.324219 0.413705,0.172833 1.856581,0.37627 2.234375,0 0.377794,-0.37627 0.125281,-0.677608 0.0039,-0.964844 C 52.355175,32.982295 52.044869,32.797422 51.824219,32.640625 51.603569,32.483828 51.5001,32.434235 51.183594,32.316406 50.867088,32.198577 50.231257,32.117644 49.914062,32 49.596867,31.882356 49.53646,31.786725 49.269531,31.675781 49.002602,31.564837 48.681376,31.463587 48.308594,31.355469 47.935812,31.247351 47.670961,31.117113 47.03125,31.039062 c -0.639711,-0.07805 -1.697547,-0.0532 -2.550781,0 -0.853234,0.0532 -1.918872,0.128261 -2.558594,0.320313 -0.639722,0.192052 -0.841395,0.316908 -1.28125,0.632812 -0.439855,0.315904 -1.128488,0.910019 -1.285156,1.289063 -0.156668,0.379044 0.113028,0.528998 0,0.640625 -0.113028,0.111627 -0.238371,0.06931 -0.3125,-0.0039 -0.07413,-0.07321 0.06586,-0.239741 -0.0078,-0.3125 -0.07366,-0.07276 -0.122871,0.184185 -0.308594,-0.0039 -0.185723,-0.188085 -0.187365,-1.089978 0,-1.277343 0.187365,-0.187365 -0.154455,0.193697 0.3125,0 0.466955,-0.193697 1.459699,-1.588843 1.921875,-1.925782 0.462176,-0.336939 0.473835,-0.210613 0.632813,-0.324218 0.158978,-0.113605 0.282086,-0.200691 0.332031,-0.320313 0.04994,-0.119622 -0.115882,-0.203727 -0.0039,-0.316406 0.111982,-0.112679 0.5222,0.11772 0.636719,0.0039 0.114519,-0.11382 -0.152853,-0.181038 0,-0.332031 0.152853,-0.150993 0.684438,0.07466 0.957031,0.01172 0.272593,-0.06294 0.554675,-0.176402 0.644531,-0.324219 0.08986,-0.147817 -0.190567,-0.127424 -0.0039,-0.316406 0.186667,-0.188982 1.085892,0.186955 1.277344,0 0.191452,-0.186955 -0.184404,-0.141006 0.0078,-0.328125 0.192204,-0.187119 0.944033,0.143579 1.28125,0.0039 0.337217,-0.139679 0.156777,-0.443748 0.640625,-0.644531 0.483848,-0.200783 1.819679,-0.16534 2.234375,0.0039 0.414696,0.16924 0.165472,0.202869 0.324219,0.316406 0.158747,0.113537 0.427726,0.218105 0.640625,0.324219 0.212899,0.106114 0.371778,0.203146 0.636719,0.3125 0.264941,0.109354 0.690752,0.213538 0.957031,0.324219 0.266279,0.110681 0.378241,0.210199 0.644531,0.320312 0.26629,0.110113 0.692086,0.209998 0.957031,0.320313 0.264945,0.110315 0.478523,0.206724 0.636719,0.320312 0.158196,0.113588 0.204868,0.270448 0.324219,0.320313 0.119351,0.04987 0.244354,0.07894 0.320312,0.0039 0.07596,-0.07504 0.07926,-0.131407 0,-0.320303 -0.07925,-0.188896 -0.433603,-0.423824 -0.64845,-0.636718 C 54.175778,28.9082 54.017578,28.748047 53.75,28.480469 53.482422,28.212891 53.162688,27.788086 52.785156,27.515625 52.407624,27.243164 51.763087,27.058055 51.507812,26.875 c -0.255275,-0.183055 -0.165279,-0.20825 -0.324218,-0.320313 -0.158939,-0.112063 -0.429,-0.201804 -0.640625,-0.308593 -0.211625,-0.106789 0.365162,-0.08573 -0.628907,-0.332032 -0.994069,-0.246301 -4.43604,-0.235491 -5.433593,0 -0.997553,0.235491 -0.482509,0.20562 -0.640625,0.320313 -0.158116,0.114693 -0.01392,0.158581 -0.320313,0.324219 -0.306396,0.165638 -1.232613,0.196128 -1.601562,0.324218 -0.368949,0.12809 -0.541504,0.175778 -0.632813,0.320313 -0.09131,0.144535 0.107185,0.204897 -0.0078,0.316406 -0.114985,0.111509 -0.335305,-0.132357 -0.644532,-0.0039 -0.309227,0.128457 -0.851361,0.714597 -0.957031,0.972656 -0.10567,0.258059 0.0732,0.235397 0,0.308594 -0.0732,0.0732 -0.237464,0.07321 -0.3125,0 -0.07504,-0.07321 -0.08193,-0.241356 -0.0078,-0.316406 0.07413,-0.07505 0.192998,0.12448 0.316406,0.0039 0.123408,-0.12058 -0.12494,-0.526279 0.0078,-0.71875 0.13274,-0.192471 0.477411,-0.145679 0.636719,-0.25 0.159308,-0.104321 0.210588,-0.166565 0.324219,-0.324219 0.113631,-0.157654 0.277198,-0.466725 0.316406,-0.632812 0.03921,-0.166087 0.149928,-0.165257 0,-0.316407 -0.149928,-0.15115 -0.572427,-0.0996 -0.960937,-0.0078 -0.38851,0.0918 -0.961199,0.423896 -1.277344,0.652344 -0.316145,0.228448 -0.424712,0.479298 -0.644531,0.636718 -0.219819,0.15742 -0.361368,0.118602 -0.640625,0.320313 -0.279257,0.201711 -0.751136,0.676897 -0.953125,0.957031 -0.201989,0.280134 -0.284422,0.476859 -0.324219,0.644531 -0.0398,0.167672 0.07412,0.239301 0,0.3125 -0.07412,0.0732 -0.222165,0.141512 -0.3125,-0.0039 -0.09033,-0.145412 0.259015,-0.426171 0.308594,-0.644531 0.04958,-0.21836 0.111406,-0.5175 0,-0.628906 -0.111406,-0.111406 -0.149705,-0.03914 -0.316407,0 -0.166702,0.03914 -0.479169,0.202419 -0.636718,0.316406 -0.157549,0.113987 -0.206167,0.166063 -0.320313,0.324219 -0.114146,0.158156 -0.216796,0.423827 -0.324219,0.636718 -0.107423,0.212891 -0.207877,0.482582 -0.320312,0.640625 -0.112435,0.158043 -0.168872,0.06425 -0.3125,0.320313 -0.143628,0.256063 -0.207541,0.954245 -0.324219,1.273437 -0.116678,0.319192 -0.194317,0.12087 -0.316406,0.652344 -0.122089,0.531474 -0.07845,1.905802 0,2.546875 0.07846,0.641073 0.212059,0.916327 0.320312,1.289063 0.108253,0.372736 0.207007,0.684193 0.316407,0.949218 0.1094,0.265025 -0.0141,0.179871 0.320312,0.644532 0.334411,0.464661 1.457173,1.58511 1.921875,1.917968 0.464702,0.332858 0.483184,0.202054 0.640625,0.316407 0.157441,0.114353 0.148649,0.252927 0.316406,0.324218 0.167757,0.07129 0.569326,-0.163872 0.640625,0.0039 0.0713,0.167772 -0.205697,0.221322 -0.3125,0.328125 -0.106803,0.106803 -0.277806,0.19311 -0.328125,0.3125 -0.05032,0.11939 0.07848,0.2478 0.0039,0.324218 -0.07458,0.07642 -0.239529,0.07894 -0.316407,0.0039 -0.07688,-0.07504 0.129233,-0.147556 -0.0039,-0.328125 -0.133133,-0.180569 -0.701183,-0.20167 -0.96875,-0.3125 -0.267567,-0.11083 -0.482593,-0.212318 -0.640625,-0.328125 -0.158032,-0.115807 0.105289,0.104344 -0.320312,-0.324219 -0.425601,-0.428563 -1.809734,-1.818528 -2.238282,-2.242188 -0.428548,-0.42366 -0.162231,-0.200619 -0.320312,-0.3125 -0.158081,-0.111881 -0.386977,-0.06277 -0.640625,-0.316406 -0.253648,-0.25364 -0.389505,-1.135444 -0.636719,-1.289062 -0.247214,-0.153618 -0.140512,-0.03904 -0.308594,0 -0.168082,0.03904 -0.560613,0.171087 -0.652343,0.320312 -0.09173,0.149225 0.0794,0.246881 0.0039,0.324219 -0.0755,0.07734 -0.249184,0.07989 -0.324219,0.0039 -0.07503,-0.07599 0.04141,-0.09636 0.0078,-0.316406 -0.03361,-0.22005 -0.215872,-0.697973 -0.328125,-0.964844 -0.112253,-0.266871 -0.210473,-0.4826 -0.324219,-0.640625 -0.113746,-0.158025 -0.149851,-0.250723 -0.316406,-0.320312 -0.166555,-0.06959 -0.396145,-0.09761 -0.632813,0 -0.236668,0.09761 -0.459832,0.203371 -0.640625,0.636718 -0.180793,0.433347 -0.155783,1.549462 -0.0039,1.914063 0.151883,0.364601 0.208821,0.161628 0.324219,0.320312 0.115398,0.158684 0.166498,0.425555 0.324218,0.644532 0.15772,0.218977 0.465818,0.365583 0.632813,0.636718 0.166995,0.271135 0.163765,0.584949 0.320312,0.960938 0.156547,0.375989 0.28404,0.778473 0.644532,1.277344 0.360492,0.498871 1.09833,1.241205 1.597656,1.601562 0.499326,0.360357 0.946243,0.56154 1.28125,0.640625 0.335007,0.07908 0.517315,-0.112846 0.632812,0 0.115497,0.112846 0.121815,0.220666 0.0078,0.335938 -0.114015,0.115272 -0.100787,-0.03678 -0.636719,-0.0078 -0.535932,0.02898 -2.245036,-0.05078 -2.564856,0.31003 z"
       id="path65"
       sodipodi:nodetypes="zzzzzzzzzzzzzzzzzzzzzzzzzzzzzzzzzzzzzzzzzzzzzzzzzzzzzzzzzzzzzzzzzzzzzzzzzzzzzzzzzzzzzzzzzzzzzzzzzzzzzzzzzzzzzzzzzzzzzzzzzzzzzzzzzzzzzzzzzzzzzzzzzzzzzzzzzzzzzzzzzzzzzzzzzzzzzzzzzzzzzzzzzzzzzzzzzzzzzzzzzzzz"
       inkscape:label="Galaxy 2" />
    <path
       style="display:inline;fill:#e85748;fill-opacity:1;stroke:none;stroke-width:0.1;stroke-linejoin:miter;stroke-dasharray:none;stroke-opacity:1"
       d="m 32.632812,41.59375 c -0.108719,-0.108076 -0.200937,-0.271715 -0.320312,-0.320313 -0.119375,-0.0486 -0.208903,-0.110265 -0.320313,0.0039 -0.11141,0.114165 -0.06204,0.469554 0.0078,0.636718 0.06984,0.167164 0.157065,0.159992 0.316406,0.320313 0.159341,0.160321 0.480469,0.480469 0.640625,0.640625 0.160156,0.160156 0.162182,0.206924 0.320313,0.320312 0.158131,0.113388 0.375007,0.206954 0.640625,0.316407 0.265618,0.109453 0.584272,0.210937 0.957031,0.320312 0.372759,0.109375 0.480577,0.224486 1.28125,0.324219 0.800673,0.09973 2.831691,0.161496 3.519531,0 0.68784,-0.161496 0.424663,-0.162755 0.644531,-0.320313 0.219868,-0.157558 0.422087,-0.479305 0.640625,-0.636718 0.218538,-0.157413 0.357023,-0.118631 0.636719,-0.320313 0.279696,-0.201682 0.813006,-0.598885 0.960938,-0.957031 0.147932,-0.358146 0.08872,-0.752129 -0.0039,-0.96875 -0.09262,-0.216621 -0.318003,-0.158057 -0.320312,-0.308594 -0.0023,-0.150537 0.210799,-0.06034 0.320312,-0.328125 0.109513,-0.267789 -0.261178,-1.166099 0.0039,-1.277344 0.265078,-0.111245 0.153353,0.243353 0.320312,0.3125 0.166959,0.06915 -0.0312,-0.345139 0.636719,0.0078 0.667922,0.352939 1.765955,2.636519 2.234388,3.191426 0.468433,0.554907 0.207024,0.274481 0.328125,0.324219 0.121101,0.04974 0.177946,0.0904 0.324219,0 0.146273,-0.0904 0.16651,0.0022 0.316406,-0.632813 0.149896,-0.63497 0.0922,-2.458066 0,-3.207031 -0.0922,-0.748965 -0.202529,-0.96285 -0.320313,-1.28125 -0.117784,-0.3184 -0.116936,-0.36086 -0.320312,-0.640625 -0.203376,-0.279765 -0.488894,-0.658843 -0.96875,-0.953125 -0.479856,-0.294282 -1.531023,-0.57577 -1.914063,-0.640625 -0.38304,-0.06486 -0.238383,0.07023 -0.3125,-0.0039 -0.07412,-0.07413 -0.437331,0.08165 -0.0039,-0.316406 0.433431,-0.398052 2.510139,0.164628 3.199219,0.3125 0.68908,0.147872 0.69469,0.214127 0.960937,0.324218 0.266247,0.110091 0.29899,0.07104 0.640625,0.316407 0.341635,0.245365 1.010946,1.014445 1.277344,1.28125 0.266398,0.266805 0.213542,0.213541 0.320313,0.320312 0.106771,0.106771 0.202141,0.27051 0.320312,0.320313 0.118171,0.0498 0.169444,0.09348 0.316406,0.0039 0.146962,-0.08958 0.26798,-0.421956 0.320313,-0.640625 0.05233,-0.218669 0.07766,-0.472838 0.0039,-0.632813 -0.07376,-0.159975 -0.261504,-0.137047 -0.324219,-0.273437 -0.06272,-0.13639 -0.05498,-0.353105 0.0039,-0.476563 0.05888,-0.123458 0.103177,-0.160469 0.265625,-0.21875 0.162448,-0.05828 0.573101,0.118312 0.691413,0 0.118312,-0.118312 0.052,-0.205138 0,-0.3125 -0.052,-0.107362 -0.256982,-0.130312 -0.316406,-0.25 -0.05942,-0.119688 0.077,-0.199242 -0.0078,-0.398437 -0.0848,-0.199195 -0.418277,-0.478466 -0.636719,-0.636719 -0.218442,-0.158253 -0.481857,-0.209929 -0.640625,-0.324219 -0.158768,-0.11429 -0.165325,-0.207692 -0.324218,-0.320312 -0.158893,-0.11262 -0.428381,-0.207024 -0.640625,-0.3125 -0.212244,-0.105476 -0.368552,-0.20933 -0.632813,-0.320313 -0.264261,-0.110983 -0.749082,-0.195867 -0.957031,-0.324218 -0.207949,-0.128351 0.337443,-0.04859 -0.324219,-0.320313 -0.661662,-0.271723 -3.097678,-0.176177 -3.835937,0 -0.738259,0.176177 -0.422313,0.166571 -0.640625,0.324219 -0.218312,0.157648 -0.399697,0.535061 -0.636719,0.632812 -0.237022,0.09775 -0.472016,-0.07044 -0.640625,0 -0.168609,0.07044 -0.160317,0.163251 -0.320313,0.324219 -0.159996,0.160968 -0.426433,0.427083 -0.640625,0.640625 -0.214192,0.213542 -0.455762,0.56277 -0.644531,0.640625 -0.188769,0.07785 -0.19822,-0.04854 -0.316419,0 -0.118199,0.04854 -0.249971,0.148049 -0.320313,0.316406 -0.07034,0.168357 0.113708,0.530824 0,0.644532 -0.113708,0.113708 -0.244353,0.07596 -0.320312,0 -0.07596,-0.07596 0.05065,-0.203991 0,-0.324219 -0.05065,-0.120228 -0.135076,0.115954 -0.328125,-0.320313 -0.193049,-0.436267 -0.390382,-1.500257 -0.08594,-2.402343 0.304442,-0.902086 1.55583,-2.204131 2.097657,-2.558594 0.541827,-0.354463 0.405882,-0.06906 0.554687,-0.15625 0.148805,-0.08719 0.165996,-0.209883 0.324219,-0.324219 0.158223,-0.114336 0.418926,-0.163439 0.636719,-0.320312 0.217793,-0.156873 0.448308,-0.553797 0.636718,-0.632813 0.18841,-0.07902 0.208143,0.04663 0.328125,-0.0039 0.119982,-0.05053 0.272698,-0.201231 0.320313,-0.320313 0.04762,-0.119082 0.08458,-0.169794 -0.0078,-0.316406 -0.09238,-0.146612 -0.487384,-0.213245 -0.644531,-0.328125 -0.157147,-0.11488 -0.145596,-0.246664 -0.3125,-0.316406 -0.166904,-0.06974 -0.05446,-0.243695 -0.640625,0 -0.586161,0.243695 -2.009522,1.710619 -2.234375,2.246094 -0.224853,0.535475 0.07114,0.242287 -0.0039,0.316406 -0.07504,0.07412 -0.202355,0.113367 -0.316406,0 -0.114051,-0.113367 -0.07364,-0.48012 -0.0039,-0.648438 0.06974,-0.168318 0.246665,-0.145596 0.316407,-0.3125 0.06974,-0.166904 0.150536,-0.490089 0,-0.640625 -0.150536,-0.150536 -0.399174,-0.09839 -0.636719,0 -0.237545,0.09839 -0.482537,0.421289 -0.640625,0.640625 -0.158088,0.219336 -0.207122,0.482561 -0.320313,0.640625 -0.113191,0.158064 -0.247079,0.152941 -0.316406,0.320313 -0.06933,0.167372 0.119279,-0.341342 -0.0039,0.636719 -0.123179,0.978061 -1.139106,3.984175 -1.277344,5.121093 -0.138238,1.136918 -0.06508,1.16377 0.0039,1.59375 0.06898,0.42998 0.108474,0.630785 0.316407,0.96875 0.207933,0.337965 0.591172,0.589166 0.964843,0.960938 0.373671,0.371772 0.937701,1.021761 1.277344,1.269531 0.339643,0.24777 0.376289,0.21913 0.640625,0.332031 0.264336,0.112901 0.951484,-0.01074 0.949219,0.324219 -0.0023,0.334963 -0.752833,0.185377 -0.957031,0.3125 -0.204198,0.127123 0.162776,0.114572 -0.304688,0.3125 -0.467464,0.197928 -2.14596,0.212985 -2.609375,0.0078 C 35.33739,41.712777 35.613272,41.704518 35.511743,41.597649 35.410214,41.49078 35.350172,41.390874 35.19143,41.277337 35.032688,41.1638 34.760444,41.067708 34.546899,40.96093 34.333354,40.854152 34.128087,40.795497 33.91018,40.636712 33.692273,40.477927 33.485701,40.21028 33.273461,39.996087 c -0.21224,-0.214193 -0.477955,-0.42567 -0.636718,-0.644532 -0.158763,-0.218862 -0.213214,-0.47932 -0.328125,-0.636718 -0.114911,-0.157398 -0.202137,-0.272224 -0.320313,-0.320313 -0.118176,-0.04809 -0.240223,-0.07022 -0.3125,0.0039 -0.07228,0.07412 -0.04817,0.203006 0.0039,0.308594 0.05207,0.105588 0.207694,0.03222 0.3125,0.246094 0.104806,0.213875 -0.117242,0.732571 0.0078,1.03125 0.125042,0.298679 0.486685,0.424963 0.644531,0.644531 0.157846,0.219568 0.203235,0.47631 0.316406,0.636719 0.113171,0.160409 0.155895,0.265074 0.324219,0.335937 0.168324,0.07086 0.516012,-0.114738 0.628906,-0.0039 0.112894,0.110838 0.152754,0.169017 0.0039,0.320313 -0.148854,0.151296 -0.734033,0.09337 -0.953125,0.0039 -0.219092,-0.08947 -0.223311,-0.220036 -0.33203,-0.328112 z"
       id="path66"
       sodipodi:nodetypes="zzzzzzzzzzzzzzzzzzzzzzzzzzzzzzzzzzzzzzzzzzzzzzzzzzzzzzzzzzzzzzzzzzzzzzzzzzzzzzzzzzzzzzzzzzzzzzzzzzzzzzzzzzzzzzzzzzzzzzzz"
       inkscape:label="Galaxy 3" />
    <path
       style="display:inline;fill:#f16e42;fill-opacity:1;stroke:none;stroke-width:0.1;stroke-linejoin:miter;stroke-dasharray:none;stroke-opacity:1"
       d="m 39.996094,30.398437 c -0.128499,0.305797 -0.759521,0.672724 -0.960938,0.953125 -0.201417,0.280401 -0.203083,0.48507 -0.316406,0.644532 -0.113323,0.159462 -0.205609,0.166099 -0.320313,0.324218 -0.114704,0.158119 -0.215129,0.477914 -0.328125,0.636719 -0.112996,0.158805 -0.08656,-0.235714 -0.3125,0.328125 -0.225936,0.563839 -0.211881,2.626375 -0.0039,3.191406 0.207981,0.565031 0.141971,0.258993 0.273438,0.320313 0.131467,0.06132 0.321708,0.06712 0.449218,0.0039 0.12751,-0.06322 0.09862,-0.15836 0.242188,-0.324219 0.143569,-0.165859 0.425115,-0.485977 0.644531,-0.644531 0.219416,-0.158554 0.468512,-0.151693 0.636713,-0.320306 0.168201,-0.168613 0.07447,-0.299541 0.320312,-0.640625 0.245839,-0.341084 0.937033,-1.031428 1.277344,-1.277344 0.340311,-0.245916 0.371774,-0.209998 0.636719,-0.320313 0.264945,-0.110315 0.422671,-0.234217 0.957031,-0.320312 0.53436,-0.0861 1.702941,-0.07869 2.238281,0.0078 0.53534,0.08649 0.589359,0.160597 0.964844,0.316407 0.375485,0.15581 0.892171,0.372524 1.269531,0.644531 0.37736,0.272007 0.864485,0.702009 0.972657,0.960937 0.108172,0.258928 0.129754,0.137076 0,0.316407 -0.129754,0.179331 -0.637495,0.265205 -0.960938,0.316406 -0.323443,0.0512 -0.726069,0.07753 -0.953125,-0.0039 -0.227056,-0.08143 -0.164345,-0.234118 -0.382812,-0.3125 -0.218467,-0.07838 -0.681838,0.07644 -0.898438,-0.0039 -0.2166,-0.08034 -0.154932,-0.236763 -0.371094,-0.316406 -0.216162,-0.07964 -0.683255,-0.08168 -0.894531,0 -0.211276,0.08168 -0.07709,0.20797 -0.34375,0.3125 -0.266665,0.10453 -0.988563,-0.09595 -1.253906,0.01172 -0.265343,0.107668 -0.225234,0.216814 -0.335938,0.320312 -0.110704,0.103498 -0.320312,0.15116 -0.328125,0.300782 -0.0078,0.149622 0.180763,0.285792 0.300782,0.339843 0.120019,0.05405 -0.0639,-0.165046 0.335937,0 0.399837,0.165046 1.311378,1.190125 1.601563,1.59375 0.290185,0.403625 0.161936,0.429004 0.320312,0.648438 0.158376,0.219434 0.472905,0.362549 0.640625,0.632812 0.16772,0.270263 0.208986,0.638016 0.316406,0.957032 0.10742,0.319016 0.220875,0.316204 0.328125,0.957031 0.10725,0.640827 0.249303,2.395084 0.0039,2.886719 -0.245403,0.491635 -0.220573,0.03201 -0.328125,0.246093 -0.107552,0.214087 0.119067,0.729505 -0.0039,1.027344 -0.122967,0.297839 -0.399173,0.544437 -0.636718,0.644531 -0.237545,0.100094 -0.124975,-0.21153 -0.640625,0.0039 -0.51565,0.21543 -1.454689,1.584919 -1.917969,1.917968 -0.46328,0.333049 -0.365438,0.252718 -0.636719,0.316407 -0.271281,0.06369 -0.735359,0.227416 -0.960937,0 -0.225578,-0.227416 -0.140351,-0.604284 0.0078,-0.960938 0.148151,-0.356654 0.67327,-0.762876 0.953125,-0.964844 0.279855,-0.201968 0.481801,-0.203981 0.640625,-0.316406 0.158824,-0.112425 0.178118,-0.0605 0.324219,-0.316406 0.146101,-0.255904 0.19342,-0.958872 0.3125,-1.277344 0.11908,-0.318472 0.215962,-0.491855 0.332031,-0.644531 0.116069,-0.152676 0.02595,0.367239 0.3125,-0.289063 0.28655,-0.656302 0.356474,-2.996642 -0.0039,-3.871093 -0.360374,-0.874451 -0.891583,-1.278132 -1.269531,-1.28125 -0.377948,-0.0031 -0.260028,0.156172 -0.332032,0.324218 -0.072,0.168046 0.110736,0.442084 -0.0078,0.632813 -0.118536,0.190729 -0.107523,0.197242 -0.636719,0.324219 -0.529196,0.126977 -1.964476,0.09624 -2.550787,0 -0.586311,-0.09624 -0.560717,-0.07585 -0.960938,-0.324214 -0.400221,-0.248361 -1.035878,-0.939053 -1.28125,-1.28125 -0.245372,-0.342197 -0.156122,-0.320046 -0.316406,-0.640625 -0.160284,-0.320579 -0.494545,-0.634185 -0.648437,-1.28125 -0.153892,-0.647065 -0.209909,-2.109009 0.0039,-2.554688 0.213809,-0.445679 0.194282,0.0054 0.320312,-0.257812 0.12603,-0.263221 -0.106915,-0.890627 0,-1.339844 0.106915,-0.449217 0.396279,-1.128889 0.644532,-1.277344 0.248253,-0.148455 0.188592,-0.04078 0.304687,0.0078 0.116095,0.04858 0.253093,0.146581 0.324219,0.3125 0.07113,0.165919 0.07229,0.466257 0.0039,0.632812 -0.06839,0.166555 -0.185085,4.55e-4 -0.316406,0.316407 -0.131321,0.315952 -0.230143,1.375963 -0.0039,1.605468 0.226243,0.229505 0.212121,0.117154 0.328125,0.0039 0.116004,-0.113254 -0.06076,-0.47741 0.0078,-0.644532 0.06856,-0.167122 0.192315,-0.158572 0.304688,-0.316406 0.112373,-0.157834 0.167462,-0.32512 0.328125,-0.644531 0.160663,-0.319411 0.361612,-0.896999 0.632812,-1.273438 0.2712,-0.376439 0.706335,-0.854166 0.964844,-0.960937 0.258509,-0.106771 0.19708,-0.04943 0.316406,0 0.119326,0.04943 0.254898,0.155376 0.324237,0.324239 0.06934,0.168863 0.124593,0.330921 -0.0039,0.636718 z"
       id="path67"
       inkscape:label="Galaxy 4"
       sodipodi:nodetypes="zzzzzzzzzzzzzzzzzzzzzzzzzzzzzzzzzzzzzzzzzzzzzzzzzzzzzzzzzzzzzzzzzzzzzzzzzzzzzzzzz" />
    <path
       style="display:inline;fill:#f7c55b;fill-opacity:1;stroke:none;stroke-width:0.1;stroke-linejoin:miter;stroke-dasharray:none;stroke-opacity:1"
       d="m 39.671875,37.753906 c -0.111452,-0.156019 0.117129,-0.190385 -0.002,-0.308594 -0.119082,-0.118209 -0.160434,0.09886 -0.314453,-0.01172 -0.154019,-0.110578 -0.149155,-0.486642 0,-0.636719 0.149155,-0.150077 0.521644,-0.15163 0.632812,-0.0039 0.111168,0.14773 -0.09857,0.202204 0.01367,0.316406 0.112242,0.114202 0.169529,-0.102299 0.318359,0.01172 0.14883,0.114018 0.148938,0.490546 -0.0039,0.640625 -0.152838,0.150079 -0.533085,0.1482 -0.644537,-0.0078 z"
       id="path68"
       inkscape:label="Galaxy Center 1"
       sodipodi:nodetypes="zzzzzzzzzz" />
    <path
       style="display:inline;fill:#f7c55b;fill-opacity:1;stroke:none;stroke-width:0.1;stroke-linejoin:miter;stroke-dasharray:none;stroke-opacity:1"
       d="m 43.195312,38.078125 c -0.151456,0.151458 -0.525177,0.107139 -0.636718,0 -0.111541,-0.107139 0.09193,-0.170906 -0.01172,-0.291016 -0.103646,-0.12011 -0.20304,0.08504 -0.308594,-0.0332 -0.105554,-0.118242 -0.147557,-0.490087 0.0039,-0.640625 0.151457,-0.150538 0.525317,-0.103439 0.640625,0 0.115308,0.103439 -0.102669,0.184748 0.01953,0.302734 0.122204,0.117987 0.189065,-0.101615 0.292969,0.01367 0.103904,0.115289 0.151462,0.49698 6e-6,0.648438 z"
       id="path69"
       inkscape:label="Galaxy Center 2"
       sodipodi:nodetypes="zzzzzzzzzz" />
  </g>
</svg>
